<svg width="1051" height="287" viewBox="0 0 1051 287" fill="none" xmlns="http://www.w3.org/2000/svg">
<path d="M336.53 232.815C326.301 232.815 317.473 231.284 310.045 228.222C302.618 225.008 296.453 220.646 291.548 215.135C286.783 209.472 283.21 202.814 280.827 195.16C278.586 187.354 277.464 178.782 277.464 169.445V70.4873H310.255V166.46C310.255 172.889 310.886 178.399 312.147 182.991C313.548 187.431 315.371 191.104 317.612 194.012C319.995 196.767 322.797 198.757 326.02 199.982C329.384 201.207 333.027 201.819 336.951 201.819C344.938 201.819 351.384 199.14 356.289 193.782C361.334 188.425 363.856 179.318 363.856 166.46V70.4873H396.648V169.445C396.648 178.782 395.457 187.354 393.074 195.16C390.692 202.967 387.049 209.702 382.144 215.365C377.239 220.875 371.003 225.161 363.436 228.222C355.869 231.284 346.901 232.815 336.53 232.815ZM422.508 112.963C427.834 111.28 434.7 109.749 443.108 108.371C451.516 106.841 460.344 106.075 469.593 106.075C478.983 106.075 486.76 107.453 492.925 110.208C499.231 112.81 504.207 116.56 507.85 121.459C511.493 126.357 514.086 132.173 515.627 138.908C517.169 145.643 517.939 153.143 517.939 161.409V229.6H486.619V165.542C486.619 154.521 485.289 146.715 482.626 142.123C479.963 137.531 474.989 135.235 467.701 135.235C465.46 135.235 463.077 135.387 460.555 135.694C458.032 135.846 455.79 136.076 453.828 136.383V229.6H422.508V112.963Z" fill="#7950FF"/>
<path d="M544.217 229.6V65.3598H572.032V205.384H634.948L634.127 229.6H544.217ZM700.244 231.955C682.112 231.955 667.982 226.274 657.855 214.914C647.796 203.478 642.767 187.708 642.767 167.603C642.767 148.022 647.523 132.439 657.035 120.853C666.545 109.269 679.511 103.44 695.933 103.365C711.466 103.365 723.508 108.671 732.061 119.284C740.683 129.897 744.994 143.986 744.994 161.55C744.994 162.82 744.959 164.876 744.891 167.716C744.891 170.556 744.891 172.649 744.891 173.993H669.864C670.137 185.504 673.011 194.434 678.486 200.788C684.027 207.066 691.623 210.205 701.27 210.205C713.587 210.205 725.424 206.693 736.782 199.667L740.581 220.519C729.291 228.142 715.846 231.955 700.244 231.955ZM670.377 155.495H719.643C719.643 145.48 717.555 137.783 713.382 132.401C709.207 127.02 703.426 124.33 696.036 124.33C689.125 124.33 683.275 126.945 678.486 132.177C673.764 137.409 671.061 145.182 670.377 155.495ZM794.586 229.6L749.631 106.392H778.165C779.26 109.755 782.714 120.219 788.531 137.783C794.415 155.272 798.315 167.192 800.231 173.545C804.132 185.952 806.937 195.332 808.648 201.685C808.648 201.609 809.229 199.181 810.392 194.398C811.556 189.614 812.65 185.13 813.677 180.944C814.772 176.684 815.456 174.106 815.729 173.209C815.798 173.06 818.911 162.745 825.07 142.267C831.296 121.788 834.991 109.83 836.155 106.392H864.482L821.785 229.6H794.586ZM926.288 231.955C908.155 231.955 894.026 226.274 883.899 214.914C873.84 203.478 868.811 187.708 868.811 167.603C868.811 148.022 873.567 132.439 883.078 120.853C892.589 109.269 905.555 103.44 921.977 103.365C937.51 103.365 949.552 108.671 958.105 119.284C966.727 129.897 971.038 143.986 971.038 161.55C971.038 162.82 971.003 164.876 970.935 167.716C970.935 170.556 970.935 172.649 970.935 173.993H895.908C896.181 185.504 899.055 194.434 904.529 200.788C910.071 207.066 917.667 210.205 927.314 210.205C939.631 210.205 951.468 206.693 962.826 199.667L966.625 220.519C955.335 228.142 941.889 231.955 926.288 231.955ZM896.421 155.495H945.687C945.687 145.48 943.599 137.783 939.426 132.401C935.251 127.02 929.47 124.33 922.08 124.33C915.169 124.33 909.319 126.945 904.529 132.177C899.808 137.409 897.105 145.182 896.421 155.495ZM1028.94 231.282C1021.21 231.282 1014.78 230.309 1009.65 228.367C1004.58 226.349 1000.58 223.172 997.64 218.838C994.697 214.503 992.644 209.346 991.482 203.366C990.318 197.387 989.736 189.95 989.736 181.057V60.9875L1016.63 59.0816V180.497C1016.63 191.558 1017.83 199.069 1020.22 203.03C1022.61 206.917 1027.27 208.86 1034.18 208.86C1037.6 208.86 1041.94 208.449 1047.21 207.626L1047.93 228.591C1047.86 228.591 1047.01 228.778 1045.37 229.151C1043.79 229.525 1042.25 229.824 1040.75 230.049C1039.31 230.347 1037.46 230.609 1035.2 230.833C1032.95 231.133 1030.86 231.282 1028.94 231.282Z" fill="#A4A4A4"/>
<path d="M109.717 218.817C115.874 225.541 125.856 225.541 132.013 218.817L232.34 109.229C238.497 102.504 238.497 91.6013 232.34 84.8765C226.183 78.1517 216.202 78.1517 210.045 84.8765L120.865 182.288L31.6846 84.8765C25.5279 78.1517 15.5461 78.1517 9.38949 84.8765C3.23288 91.6013 3.23288 102.504 9.38949 109.229L109.717 218.817ZM105.1 80.3603V206.64H136.63V80.3603H105.1Z" fill="#7950FF"/>
<path d="M52.55 86.1C52.55 82.9299 50.1972 80.36 47.295 80.36C44.3927 80.36 42.04 82.9299 42.04 86.1V132.02C42.04 135.19 44.3927 137.76 47.295 137.76C50.1972 137.76 52.55 135.19 52.55 132.02V86.1Z" fill="#7950FF"/>
<path d="M84.08 114.8C84.08 108.46 79.3745 103.32 73.57 103.32C67.7655 103.32 63.06 108.46 63.06 114.8V149.24C63.06 155.58 67.7655 160.72 73.57 160.72C79.3745 160.72 84.08 155.58 84.08 149.24V114.8Z" fill="#7950FF"/>
<path d="M21.02 74.62C21.02 71.4499 18.6673 68.88 15.765 68.88C12.8628 68.88 10.51 71.4499 10.51 74.62V109.06C10.51 112.23 12.8628 114.8 15.765 114.8C18.6673 114.8 21.02 112.23 21.02 109.06V74.62Z" fill="#7950FF"/>
<path d="M178.67 97.58C178.67 94.4099 176.317 91.84 173.415 91.84C170.513 91.84 168.16 94.4099 168.16 97.58V143.5C168.16 146.67 170.513 149.24 173.415 149.24C176.317 149.24 178.67 146.67 178.67 143.5V97.58Z" fill="#7950FF"/>
<path d="M220.71 68.88C220.71 62.5398 216.005 57.4 210.2 57.4C204.395 57.4 199.69 62.5398 199.69 68.88V103.32C199.69 109.66 204.395 114.8 210.2 114.8C216.005 114.8 220.71 109.66 220.71 103.32V68.88Z" fill="#7950FF"/>
<path d="M157.65 120.54C157.65 117.37 155.297 114.8 152.395 114.8C149.493 114.8 147.14 117.37 147.14 120.54V166.46C147.14 169.63 149.493 172.2 152.395 172.2C155.297 172.2 157.65 169.63 157.65 166.46V120.54Z" fill="#7950FF"/>
</svg>
