<svg width="419" height="351" viewBox="0 0 419 351" fill="none" xmlns="http://www.w3.org/2000/svg">
<path d="M229.618 9.59895C218.507 -3.19968 200.493 -3.19968 189.383 9.59895L8.33283 218.196C-2.77759 230.997 -2.77759 251.751 8.33283 264.551C19.4432 277.352 37.4555 277.352 48.5659 264.551L209.5 79.1315L370.434 264.551C381.544 277.352 399.557 277.352 410.667 264.551C421.778 251.751 421.778 230.997 410.667 218.196L229.618 9.59895ZM237.949 351L237.949 32.7772H181.051L181.051 351H237.949Z" fill="#7950FF"/>
<path d="M332.78 262.222C332.78 268.256 337.026 273.148 342.264 273.148C347.501 273.148 351.747 268.256 351.747 262.222V174.815C351.747 168.781 347.501 163.889 342.264 163.889C337.026 163.889 332.78 168.781 332.78 174.815V262.222Z" fill="#7950FF"/>
<path d="M275.882 207.592C275.882 219.661 284.373 229.444 294.848 229.444C305.323 229.444 313.814 219.661 313.814 207.592V142.037C313.814 129.968 305.323 120.185 294.848 120.185C284.373 120.185 275.882 129.968 275.882 142.037V207.592Z" fill="#7950FF"/>
<path d="M389.715 286.682C389.715 291.15 393.755 294.771 398.738 294.771C403.721 294.771 407.761 291.15 407.761 286.682V238.143C407.761 233.675 403.721 230.053 398.738 230.053C393.755 230.053 389.715 233.675 389.715 238.143V286.682Z" fill="#7950FF"/>
<path d="M105.186 240.37C105.186 246.405 109.431 251.296 114.669 251.296C119.906 251.296 124.152 246.405 124.152 240.37L124.152 152.963C124.152 146.929 119.906 142.037 114.669 142.037C109.431 142.037 105.186 146.929 105.186 152.963L105.186 240.37Z" fill="#7950FF"/>
<path d="M41.8048 272.158C41.8048 284.227 50.2962 294.01 60.771 294.01C71.2457 294.01 79.7372 284.227 79.7372 272.158L79.7372 206.603C79.7372 194.534 71.2457 184.751 60.771 184.751C50.2962 184.751 41.8048 194.534 41.8048 206.603L41.8048 272.158Z" fill="#7950FF"/>
<path d="M143.118 196.667C143.118 202.701 147.364 207.593 152.601 207.593C157.839 207.593 162.084 202.701 162.084 196.667L162.084 109.259C162.084 103.225 157.839 98.3332 152.601 98.3332C147.364 98.3332 143.118 103.225 143.118 109.259L143.118 196.667Z" fill="#7950FF"/>
</svg>
