<svg width="504" height="394" viewBox="0 0 504 394" fill="none" xmlns="http://www.w3.org/2000/svg">
<path d="M227.843 381.947C241.184 397.851 262.815 397.851 276.157 381.947L493.557 122.724C506.898 106.817 506.898 81.0263 493.557 65.1194C480.216 49.2122 458.587 49.2122 445.246 65.1194L253.532 293.712C252.733 294.665 251.267 294.665 250.468 293.712L58.7543 65.1194C45.4137 49.2122 23.7839 49.2122 10.4431 65.1194C-2.8977 81.0263 -2.8977 106.817 10.4431 122.724L227.843 381.947ZM219.839 54.4365C218.734 54.4365 217.839 55.332 217.839 56.4365V351.143C217.839 352.248 218.734 353.143 219.839 353.143H284.161C285.266 353.143 286.161 352.248 286.161 351.143V56.4365C286.161 55.332 285.266 54.4365 284.161 54.4365H219.839Z" fill="#7950FF"/>
<path d="M103.968 68.0135C103.968 60.5148 98.8697 54.4359 92.5808 54.4359C86.2919 54.4359 81.1937 60.5148 81.1937 68.0135V176.634C81.1937 184.133 86.2919 190.212 92.5808 190.212C98.8697 190.212 103.968 184.133 103.968 176.634V68.0135Z" fill="#7950FF"/>
<path d="M172.291 135.9C172.291 120.902 162.094 108.744 149.516 108.744C136.938 108.744 126.742 120.902 126.742 135.9V217.365C126.742 232.362 136.938 244.52 149.516 244.52C162.094 244.52 172.291 232.362 172.291 217.365V135.9Z" fill="#7950FF"/>
<path d="M35.6459 40.8567C35.6459 33.3581 30.5477 27.2792 24.2588 27.2792C17.9699 27.2792 12.8717 33.3581 12.8717 40.8567V122.322C12.8717 129.821 17.9699 135.9 24.2588 135.9C30.5477 135.9 35.6459 129.821 35.6459 122.322V40.8567Z" fill="#7950FF"/>
<path d="M377.259 95.1678C377.259 87.6691 372.16 81.5902 365.871 81.5902C359.582 81.5902 354.484 87.6691 354.484 95.1678V203.788C354.484 211.287 359.582 217.366 365.871 217.366C372.16 217.366 377.259 211.287 377.259 203.788V95.1678Z" fill="#7950FF"/>
<path d="M468.355 27.2801C468.355 12.2828 458.159 0.125 445.581 0.125C433.003 0.125 422.807 12.2828 422.807 27.2801V108.746C422.807 123.743 433.003 135.901 445.581 135.901C458.159 135.901 468.355 123.743 468.355 108.746V27.2801Z" fill="#7950FF"/>
<path d="M331.71 149.479C331.71 141.98 326.612 135.901 320.323 135.901C314.034 135.901 308.936 141.98 308.936 149.479V258.099C308.936 265.598 314.034 271.677 320.323 271.677C326.612 271.677 331.71 265.598 331.71 258.099V149.479Z" fill="#7950FF"/>
</svg>
