<svg width="1125" height="230" viewBox="0 0 1125 230" fill="none" xmlns="http://www.w3.org/2000/svg">
<path d="M420.7 122.7H449.8V219.9C447.4 220.7 443.9 221.6 439.3 222.6C434.9 223.6 429.7 224.6 423.7 225.6C417.9 226.6 411.5 227.4 404.5 228C397.5 228.8 390.4 229.2 383.2 229.2C368.6 229.2 355.3 226.8 343.3 222C331.3 217.2 321 210.2 312.4 201C303.8 191.8 297.1 180.5 292.3 167.1C287.7 153.7 285.4 138.3 285.4 120.9C285.4 103.5 288 88.1 293.2 74.7C298.6 61.1 305.8 49.7 314.8 40.5C323.8 31.3 334.3 24.3 346.3 19.5C358.5 14.7 371.5 12.3 385.3 12.3C394.7 12.3 403 12.9 410.2 14.1C417.6 15.3 423.9 16.7 429.1 18.3C434.3 19.9 438.5 21.5 441.7 23.1C445.1 24.7 447.4 25.9 448.6 26.7L439.3 51C433.5 47.2 425.8 44.1 416.2 41.7C406.6 39.1 396.8 37.8 386.8 37.8C376.2 37.8 366.5 39.7 357.7 43.5C349.1 47.3 341.7 52.8 335.5 60C329.5 67.2 324.8 76 321.4 86.4C318 96.6 316.3 108.1 316.3 120.9C316.3 133.3 317.7 144.6 320.5 154.8C323.5 165 327.9 173.8 333.7 181.2C339.7 188.4 347 194 355.6 198C364.4 202 374.7 204 386.5 204C394.9 204 402 203.6 407.8 202.8C413.8 201.8 418.1 200.9 420.7 200.1V122.7ZM617.162 122.7H646.262V219.9C643.863 220.7 640.363 221.6 635.763 222.6C631.363 223.6 626.163 224.6 620.163 225.6C614.363 226.6 607.962 227.4 600.962 228C593.962 228.8 586.862 229.2 579.662 229.2C565.062 229.2 551.762 226.8 539.762 222C527.762 217.2 517.462 210.2 508.862 201C500.262 191.8 493.562 180.5 488.762 167.1C484.162 153.7 481.862 138.3 481.862 120.9C481.862 103.5 484.462 88.1 489.662 74.7C495.062 61.1 502.262 49.7 511.262 40.5C520.262 31.3 530.762 24.3 542.762 19.5C554.962 14.7 567.963 12.3 581.763 12.3C591.163 12.3 599.463 12.9 606.663 14.1C614.063 15.3 620.363 16.7 625.562 18.3C630.762 19.9 634.963 21.5 638.163 23.1C641.563 24.7 643.863 25.9 645.063 26.7L635.763 51C629.963 47.2 622.263 44.1 612.662 41.7C603.062 39.1 593.262 37.8 583.263 37.8C572.663 37.8 562.963 39.7 554.163 43.5C545.562 47.3 538.162 52.8 531.962 60C525.962 67.2 521.262 76 517.862 86.4C514.462 96.6 512.762 108.1 512.762 120.9C512.762 133.3 514.162 144.6 516.962 154.8C519.962 165 524.362 173.8 530.162 181.2C536.162 188.4 543.462 194 552.063 198C560.863 202 571.163 204 582.962 204C591.362 204 598.462 203.6 604.263 202.8C610.263 201.8 614.562 200.9 617.162 200.1V122.7Z" fill="#7950FF"/>
<path d="M800.425 84C792.025 110.8 783.525 135.6 774.925 158.4C766.325 181.2 757.725 203.4 749.125 225H720.025C709.425 194.4 700.025 162.1 691.825 128.1C683.825 94.1 676.325 57.1 669.325 17.1H699.925C702.725 32.7 705.625 48.3 708.625 63.9C711.625 79.5 714.725 94.7 717.925 109.5C721.125 124.1 724.325 138.1 727.525 151.5C730.725 164.9 734.025 177.3 737.425 188.7C745.425 167.7 753.925 144.7 762.925 119.7C771.925 94.5 780.325 68.5 788.125 41.7H813.325C821.125 68.5 829.625 94.5 838.825 119.7C848.025 144.7 856.625 167.7 864.625 188.7C867.825 177.5 871.025 165.2 874.225 151.8C877.425 138.4 880.525 124.4 883.525 109.8C886.725 95 889.825 79.8 892.825 64.2C895.825 48.4 898.725 32.7 901.525 17.1H931.225C924.025 57.1 916.325 94.1 908.125 128.1C900.125 162.1 890.925 194.4 880.525 225H851.425C842.625 203.4 834.025 181.2 825.625 158.4C817.225 135.6 808.825 110.8 800.425 84ZM1015.44 15C1044.64 15 1067.04 20.6 1082.64 31.8C1098.44 42.8 1106.34 59.3 1106.34 81.3C1106.34 93.3 1104.14 103.6 1099.74 112.2C1095.54 120.6 1089.34 127.5 1081.14 132.9C1073.14 138.1 1063.34 141.9 1051.74 144.3C1040.14 146.7 1027.04 147.9 1012.44 147.9H989.338V225H960.238V20.1C968.438 18.1 977.538 16.8 987.538 16.2C997.738 15.4 1007.04 15 1015.44 15ZM1017.84 40.5C1005.44 40.5 995.938 40.8 989.338 41.4V123H1011.24C1021.24 123 1030.24 122.4 1038.24 121.2C1046.24 119.8 1052.94 117.6 1058.34 114.6C1063.94 111.4 1068.24 107.1 1071.24 101.7C1074.24 96.3 1075.74 89.4 1075.74 81C1075.74 73 1074.14 66.4 1070.94 61.2C1067.94 56 1063.74 51.9 1058.34 48.9C1053.14 45.7 1047.04 43.5 1040.04 42.3C1033.04 41.1 1025.64 40.5 1017.84 40.5Z" fill="#A4A4A4"/>
<path d="M127.241 27.0429C121.084 20.319 111.102 20.319 104.945 27.0429L4.61757 136.631C-1.53919 143.356 -1.53919 154.259 4.61757 160.983C10.7743 167.708 20.7557 167.708 26.9124 160.983L116.093 63.5722L205.273 160.983C211.43 167.708 221.412 167.708 227.568 160.983C233.725 154.259 233.725 143.356 227.568 136.631L127.241 27.0429ZM131.858 206.4L131.858 39.2197H100.328L100.328 206.4H131.858Z" fill="#7950FF"/>
<path d="M184.408 159.76C184.408 162.93 186.761 165.5 189.663 165.5C192.565 165.5 194.918 162.93 194.918 159.76V113.84C194.918 110.67 192.565 108.1 189.663 108.1C186.761 108.1 184.408 110.67 184.408 113.84V159.76Z" fill="#7950FF"/>
<path d="M152.878 131.06C152.878 137.4 157.583 142.54 163.388 142.54C169.192 142.54 173.898 137.4 173.898 131.06V96.6199C173.898 90.2797 169.192 85.1399 163.388 85.1399C157.583 85.1399 152.878 90.2797 152.878 96.6199V131.06Z" fill="#7950FF"/>
<path d="M215.958 172.61C215.958 174.957 218.196 176.86 220.958 176.86C223.719 176.86 225.958 174.957 225.958 172.61V147.11C225.958 144.763 223.719 142.86 220.958 142.86C218.196 142.86 215.958 144.763 215.958 147.11V172.61Z" fill="#7950FF"/>
<path d="M58.2878 148.28C58.2878 151.45 60.6406 154.02 63.5428 154.02C66.4451 154.02 68.7979 151.45 68.7979 148.28L68.7979 102.36C68.7979 99.1899 66.4451 96.62 63.5428 96.62C60.6406 96.62 58.2878 99.1899 58.2878 102.36L58.2878 148.28Z" fill="#7950FF"/>
<path d="M23.1658 164.98C23.1658 171.32 27.8713 176.46 33.6758 176.46C39.4803 176.46 44.1858 171.32 44.1858 164.98L44.1858 130.54C44.1858 124.2 39.4803 119.06 33.6758 119.06C27.8713 119.06 23.1658 124.2 23.1658 130.54L23.1658 164.98Z" fill="#7950FF"/>
<path d="M79.3079 125.32C79.3079 128.49 81.6606 131.06 84.5629 131.06C87.4651 131.06 89.8179 128.49 89.8179 125.32L89.8179 79.3999C89.8179 76.2298 87.4651 73.6599 84.5629 73.6599C81.6606 73.6599 79.3079 76.2298 79.3079 79.3999L79.3079 125.32Z" fill="#7950FF"/>
</svg>
